<svg width="20" height="20" viewBox="0 0 20 20" fill="none" xmlns="http://www.w3.org/2000/svg">
<path d="M10.8134 2.72233L12.6688 6.40761C12.8055 6.67461 13.0664 6.86002 13.3673 6.90123L17.5348 7.50116C17.7782 7.53494 17.9991 7.66185 18.1483 7.85551C18.2958 8.0467 18.3592 8.28898 18.3233 8.52713C18.2942 8.72491 18.2 8.90786 18.0558 9.04795L15.036 11.9413C14.8151 12.1432 14.7151 12.4423 14.7684 12.7349L15.5119 16.8025C15.5911 17.2937 15.2618 17.7568 14.7684 17.8499C14.565 17.8821 14.3567 17.8483 14.1733 17.756L10.4558 15.8417C10.1799 15.704 9.85402 15.704 9.57813 15.8417L5.86066 17.756C5.4039 17.9958 4.83794 17.8326 4.58372 17.3876C4.48953 17.2104 4.45619 17.0085 4.48703 16.8116L5.23053 12.7431C5.28387 12.4514 5.18302 12.1506 4.96297 11.9487L1.94315 9.05702C1.58391 8.7142 1.57307 8.14971 1.91898 7.79453C1.92648 7.78711 1.93482 7.77887 1.94315 7.77063C2.08652 7.62642 2.27489 7.53494 2.47827 7.51105L6.64583 6.91029C6.94589 6.86826 7.20678 6.6845 7.34431 6.41585L9.13303 2.72233C9.29223 2.40588 9.6223 2.20893 9.98071 2.21717H10.0924C10.4033 2.25425 10.6742 2.44461 10.8134 2.72233Z" fill="#FAC412"/>
<path d="M9.99315 15.739C9.83173 15.744 9.67448 15.7868 9.53303 15.8635L5.83374 17.7735C5.38111 17.987 4.83944 17.8213 4.58567 17.3935C4.49165 17.2187 4.45753 17.0184 4.48915 16.8222L5.22801 12.7624C5.27793 12.4672 5.17809 12.1672 4.96092 11.9595L1.93975 9.06851C1.58114 8.72146 1.57449 8.15185 1.92561 7.79656C1.9306 7.79161 1.93476 7.78749 1.93975 7.78337C2.08287 7.64323 2.26758 7.55091 2.46644 7.52206L6.6375 6.91535C6.93953 6.87743 7.20163 6.69113 7.33476 6.42074L9.14779 2.68074C9.32002 2.37903 9.65035 2.19932 9.99981 2.21828C9.99315 2.46311 9.99315 15.5725 9.99315 15.739Z" fill="#FAC412"/>
</svg>
